Coordinates
version=1
nRows=13
nColumns=36
inDegrees=yes

Units are S.I. units (second, meters, Newtons, ...)
If the header above contains a line with 'inDegrees', this indicates whether rotational values are in degrees (yes) or radians (no).

endheader
time	pelvis_tilt	pelvis_list	pelvis_rotation	pelvis_tx	pelvis_ty	pelvis_tz	hip_flexion_r	hip_adduction_r	hip_rotation_r	knee_angle_r	knee_angle_r_beta	ankle_angle_r	subtalar_angle_r	mtp_angle_r	hip_flexion_l	hip_adduction_l	hip_rotation_l	knee_angle_l	knee_angle_l_beta	ankle_angle_l	subtalar_angle_l	mtp_angle_l	lumbar_extension	lumbar_bending	lumbar_rotation	arm_flex_r	arm_add_r	arm_rot_r	elbow_flex_r	pro_sup_r	arm_flex_l	arm_add_l	arm_rot_l	elbow_flex_l	pro_sup_l
      2.26666670	      0.23579601	     -0.79885764	     -2.42842898	      0.41060155	      0.89447355	     -0.09920978	     -3.21801555	     -1.40919606	      4.09828528	      0.69276923	      0.01209110	      6.02406293	    -18.19307463	     -7.49999987	     -2.28622751	     -4.00013686	      3.78671848	      0.49030870	      0.00855750	      5.10550661	    -11.51273086	     -7.49999987	     -7.25628747	     -0.47236973	      0.82195890	     12.96822798	    -12.32380117	     58.09035349	     31.81002555	     61.02866864	      9.94093767	    -12.39541642	     54.54757741	     28.55630296	     51.65722443
      2.28333330	      0.02465044	     -0.80896826	     -2.45472696	      0.40892778	      0.88969866	     -0.09624908	     -2.90231072	     -1.33897479	      4.19069101	      0.68376594	      0.01193397	      5.92545256	    -18.33369733	     -7.49999987	     -1.98308136	     -4.03932652	      3.69517479	      0.49503644	      0.00864002	      5.14310220	    -11.50787008	     -7.49999987	     -7.22856233	     -0.51208496	      0.98001784	     12.89533296	    -12.41271397	     57.82299924	     32.12091664	     60.88176887	     10.00293864	    -12.59984276	     54.20438873	     29.01201128	     52.08609260
      2.30000000	     -0.16458456	     -0.79212767	     -2.44742450	      0.40841219	      0.89330442	     -0.09942857	     -2.62693383	     -1.35787617	      3.97361683	      0.70655666	      0.01233174	      6.13979135	    -17.79711043	     -7.49999987	     -1.69981859	     -4.02107956	      3.72260486	      0.49952769	      0.00871840	      5.12479194	    -11.47749785	     -7.49999987	     -7.27939001	     -0.49655197	      0.91660007	     13.05652032	    -12.30930626	     57.75046564	     31.80351570	     60.82192285	     10.10367881	    -12.52605552	     54.06478404	     28.70417769	     52.20363217
      2.31666670	     -0.26916485	     -0.78033471	     -2.46976746	      0.40683813	      0.89310554	     -0.10022962	     -2.44422944	     -1.38257133	      3.97862044	      0.67048093	      0.01170210	      6.11259945	    -17.80161226	     -7.49999987	     -1.52007684	     -3.98792947	      3.70541159	      0.46237680	      0.00807000	      5.13129243	    -11.48974581	     -7.49999987	     -7.46141334	     -0.49218313	      0.92905967	     13.16373879	    -12.34589994	     57.75215026	     31.80548321	     60.82507979	     10.20714099	    -12.53628740	     54.06457202	     28.71576142	     52.19016981
      2.33333330	     -0.73734812	     -0.73444307	     -2.49771454	      0.40437157	      0.89260569	     -0.09949465	     -1.76560302	     -1.40407672	      4.15558010	      0.72318460	      0.01262195	      5.90831024	    -18.07446916	     -7.49999987	     -0.85858658	     -3.94787118	      3.74295581	      0.51950214	      0.00906702	      4.92404263	    -11.72535443	     -7.49999987	     -7.27330142	     -0.51438134	      1.07278799	     13.29103597	    -12.46150963	     57.95880629	     31.89401462	     60.88849855	     10.43770691	    -12.57433203	     54.22569444	     28.81641723	     51.92480072
      2.35000000	     -0.98687341	     -0.68548709	     -2.45391630	      0.40193649	      0.88419933	     -0.10012925	     -1.35914473	     -1.47050401	      4.20318391	      0.76489428	      0.01334992	      5.65642239	    -18.52246444	     -7.49999987	     -0.41945850	     -3.87339092	      3.79286787	      0.53694036	      0.00937138	      4.90386800	    -11.75233586	     -7.49999987	     -7.42932726	     -0.52202385	      1.03275650	     13.41846165	    -12.59941214	     57.85161981	     32.04998240	     60.85754469	     10.69695821	    -12.70735038	     54.10884753	     29.06455285	     51.92975958
      2.36666670	     -1.28169013	     -0.62964930	     -2.41533374	      0.40297201	      0.89389040	     -0.10236325	     -0.93428572	     -1.55296842	      3.76243913	      0.78846614	      0.01376133	      5.94605254	    -17.72370546	     -7.49999987	      0.02919595	     -3.77914290	      3.96633478	      0.54498617	      0.00951180	      4.55108505	    -12.13175983	     -7.49999987	     -7.50679284	     -0.47144144	      0.98369081	     13.49194532	    -12.61917656	     57.52607555	     31.88776606	     60.76424966	     10.78867243	    -12.55809066	     53.67615543	     28.93692245	     52.22784511
      2.38333330	     -1.54154161	     -0.64613905	     -2.48791268	      0.39911700	      0.88673364	     -0.09717235	     -0.46786438	     -1.46101719	      3.90513031	      0.81521838	      0.01422824	      6.10977585	    -17.77012274	     -7.49999987	      0.46036509	     -3.81847040	      3.73811814	      0.56447219	      0.00985190	      4.73883069	    -11.83713984	     -7.49999987	     -7.70480469	     -0.50473749	      1.12474751	     13.60428391	    -12.64220633	     57.34774127	     31.98081450	     60.75912125	     11.00160513	    -12.73151861	     53.38456872	     29.11665641	     52.31922371
      2.40000000	     -2.05868187	     -0.60375977	     -2.50083177	      0.39772962	      0.88801993	     -0.09529002	      0.24420415	     -1.37833902	      4.22011962	      0.83529468	      0.01457864	      5.86801418	    -18.31972819	     -7.49999987	      1.18578418	     -3.87444759	      3.85351869	      0.59279337	      0.01034620	      4.33359345	    -12.09095650	     -7.49999987	     -7.56855649	     -0.61235774	      1.15826916	     13.62223235	    -12.68689779	     57.29771462	     32.08112930	     60.81465226	     11.17215231	    -12.97378364	     53.38373040	     29.36098612	     52.12631730
      2.41666670	     -2.29190451	     -0.60864428	     -2.50481582	      0.39421663	      0.88990682	     -0.09463353	      0.64974073	     -1.25827755	      4.20513298	      0.87032969	      0.01519012	      5.82413084	    -18.45472031	     -7.49999987	      1.64644199	     -3.99357181	      3.98147753	      0.62231764	      0.01086149	      4.13194504	    -12.05546822	     -7.49999987	     -8.01608530	     -0.74846720	      1.11882987	     13.66496798	    -12.57662905	     56.30549188	     32.37781028	     61.22362229	     11.23031592	    -13.15462977	     51.59772457	     29.69832978	     54.48372179
      2.43333330	     -2.85556086	     -0.59524808	     -2.52173198	      0.39284693	      0.88160778	     -0.09580227	      1.44591916	     -1.17375135	      4.50942374	      0.91497573	      0.01596934	      5.69378968	    -19.03402005	     -7.49999987	      2.46637366	     -4.07362656	      4.11320069	      0.68085136	      0.01188310	      3.85719013	    -12.46032649	     -7.49999987	     -7.83205584	     -0.82926559	      1.22835666	     13.80712539	    -12.52299551	     56.58703267	     32.11611434	     61.40590520	     11.52020891	    -13.27939365	     51.90410532	     29.67409559	     53.91190503
      2.45000000	     -3.30564888	     -0.53567336	     -2.49509428	      0.39082548	      0.88715939	     -0.09761027	      2.13898608	     -1.20563292	      4.35112224	      0.96563317	      0.01685348	      5.70269701	    -18.79297365	     -7.49999987	      3.16957623	     -4.05660873	      4.00460844	      0.72860580	      0.01271657	      3.64247413	    -12.27471999	     -7.49999987	     -7.93871881	     -0.92102467	      1.23594157	     13.96158251	    -12.53695433	     56.45029583	     32.12188759	     61.38157876	     11.80491564	    -13.38166059	     51.82041264	     29.76252050	     53.81154832
      2.46666670	     -3.66685980	     -0.47294597	     -2.48204648	      0.38754908	      0.88926306	     -0.09766676	      2.77760918	     -1.25592848	      4.51686613	      1.00991267	      0.01762630	      5.48367758	    -19.07983021	     -7.49999987	      3.79489954	     -4.00736348	      4.06195411	      0.78572070	      0.01371341	      3.28408000	    -12.63275398	     -7.49999987	     -8.31054557	     -1.04174817	      1.25061011	     14.04526323	    -12.56328860	     55.59930860	     32.31379631	     61.68510744	     11.98608672	    -13.42862246	     50.49542488	     30.01393757	     55.23810976
